<svg width="230" height="48" viewBox="0 0 230 48" fill="none" xmlns="http://www.w3.org/2000/svg">
<rect width="230" height="48" rx="4" fill="#E3F5F5"/>
<path d="M21.6342 30V18.8H31.8422V30H29.2662V20.32L29.8582 20.912H23.6182L24.2102 20.32V30H21.6342ZM38.4586 30.128C37.5412 30.128 36.7252 29.936 36.0106 29.552C35.3066 29.168 34.7466 28.6453 34.3306 27.984C33.9252 27.312 33.7226 26.5493 33.7226 25.696C33.7226 24.832 33.9252 24.0693 34.3306 23.408C34.7466 22.736 35.3066 22.2133 36.0106 21.84C36.7252 21.456 37.5412 21.264 38.4586 21.264C39.3652 21.264 40.1759 21.456 40.8906 21.84C41.6052 22.2133 42.1652 22.7307 42.5706 23.392C42.9759 24.0533 43.1786 24.8213 43.1786 25.696C43.1786 26.5493 42.9759 27.312 42.5706 27.984C42.1652 28.6453 41.6052 29.168 40.8906 29.552C40.1759 29.936 39.3652 30.128 38.4586 30.128ZM38.4586 28.08C38.8746 28.08 39.2479 27.984 39.5786 27.792C39.9092 27.6 40.1706 27.328 40.3626 26.976C40.5546 26.6133 40.6506 26.1867 40.6506 25.696C40.6506 25.1947 40.5546 24.768 40.3626 24.416C40.1706 24.064 39.9092 23.792 39.5786 23.6C39.2479 23.408 38.8746 23.312 38.4586 23.312C38.0426 23.312 37.6692 23.408 37.3386 23.6C37.0079 23.792 36.7412 24.064 36.5386 24.416C36.3466 24.768 36.2506 25.1947 36.2506 25.696C36.2506 26.1867 36.3466 26.6133 36.5386 26.976C36.7412 27.328 37.0079 27.6 37.3386 27.792C37.6692 27.984 38.0426 28.08 38.4586 28.08ZM50.6903 28.88V23.44H47.8743L47.8263 24.544C47.805 25.0027 47.7783 25.44 47.7463 25.856C47.7143 26.272 47.6503 26.6507 47.5543 26.992C47.469 27.3227 47.341 27.6053 47.1703 27.84C46.9996 28.064 46.7703 28.2187 46.4823 28.304L44.0183 27.952C44.3276 27.952 44.5783 27.8613 44.7703 27.68C44.9623 27.488 45.1116 27.2267 45.2183 26.896C45.325 26.5547 45.405 26.1707 45.4583 25.744C45.5116 25.3067 45.549 24.848 45.5703 24.368L45.6823 21.392H53.1863V28.88H50.6903ZM43.7303 31.856V27.952H54.4183V31.856H52.0983V30H46.0503V31.856H43.7303ZM60.0211 30.128C59.1037 30.128 58.2877 29.936 57.5731 29.552C56.8691 29.168 56.3091 28.6453 55.8931 27.984C55.4877 27.312 55.2851 26.5493 55.2851 25.696C55.2851 24.832 55.4877 24.0693 55.8931 23.408C56.3091 22.736 56.8691 22.2133 57.5731 21.84C58.2877 21.456 59.1037 21.264 60.0211 21.264C60.9277 21.264 61.7384 21.456 62.4531 21.84C63.1677 22.2133 63.7277 22.7307 64.1331 23.392C64.5384 24.0533 64.7411 24.8213 64.7411 25.696C64.7411 26.5493 64.5384 27.312 64.1331 27.984C63.7277 28.6453 63.1677 29.168 62.4531 29.552C61.7384 29.936 60.9277 30.128 60.0211 30.128ZM60.0211 28.08C60.4371 28.08 60.8104 27.984 61.1411 27.792C61.4717 27.6 61.7331 27.328 61.9251 26.976C62.1171 26.6133 62.2131 26.1867 62.2131 25.696C62.2131 25.1947 62.1171 24.768 61.9251 24.416C61.7331 24.064 61.4717 23.792 61.1411 23.6C60.8104 23.408 60.4371 23.312 60.0211 23.312C59.6051 23.312 59.2317 23.408 58.9011 23.6C58.5704 23.792 58.3037 24.064 58.1011 24.416C57.9091 24.768 57.8131 25.1947 57.8131 25.696C57.8131 26.1867 57.9091 26.6133 58.1011 26.976C58.3037 27.328 58.5704 27.6 58.9011 27.792C59.2317 27.984 59.6051 28.08 60.0211 28.08ZM70.7298 30.192C70.0258 30.192 69.3858 30.0907 68.8098 29.888C68.2338 29.6747 67.7325 29.3493 67.3058 28.912C66.8898 28.464 66.5645 27.8933 66.3298 27.2C66.1058 26.5067 65.9938 25.68 65.9938 24.72C65.9938 24.0373 66.0525 23.4133 66.1698 22.848C66.2871 22.2827 66.4631 21.7707 66.6978 21.312C66.9325 20.8427 67.2311 20.432 67.5938 20.08C67.9671 19.7173 68.3991 19.4187 68.8898 19.184C69.3911 18.9387 69.9565 18.752 70.5858 18.624L74.6818 17.808L75.0178 19.952L71.4018 20.672C71.1885 20.7147 70.9431 20.7733 70.6658 20.848C70.3991 20.912 70.1271 21.0133 69.8498 21.152C69.5831 21.2907 69.3325 21.488 69.0978 21.744C68.8738 21.9893 68.6925 22.3147 68.5538 22.72C68.4151 23.1147 68.3458 23.6053 68.3458 24.192C68.3458 24.3733 68.3511 24.512 68.3618 24.608C68.3831 24.704 68.3991 24.8053 68.4098 24.912C68.4311 25.0187 68.4418 25.184 68.4418 25.408L67.6418 24.624C67.8765 24.1227 68.1751 23.696 68.5378 23.344C68.9111 22.992 69.3378 22.7253 69.8178 22.544C70.3085 22.352 70.8525 22.256 71.4498 22.256C72.2605 22.256 72.9698 22.4213 73.5778 22.752C74.1965 23.072 74.6765 23.5253 75.0178 24.112C75.3591 24.6987 75.5298 25.3653 75.5298 26.112C75.5298 26.9227 75.3271 27.6373 74.9218 28.256C74.5165 28.864 73.9511 29.3387 73.2258 29.68C72.5111 30.0213 71.6791 30.192 70.7298 30.192ZM70.8578 28.256C71.2738 28.256 71.6418 28.1653 71.9618 27.984C72.2818 27.792 72.5271 27.5413 72.6978 27.232C72.8791 26.912 72.9698 26.5547 72.9698 26.16C72.9698 25.776 72.8791 25.4347 72.6978 25.136C72.5271 24.8373 72.2818 24.6027 71.9618 24.432C71.6418 24.2613 71.2685 24.176 70.8418 24.176C70.4258 24.176 70.0525 24.2613 69.7218 24.432C69.3911 24.592 69.1351 24.816 68.9538 25.104C68.7725 25.392 68.6818 25.728 68.6818 26.112C68.6818 26.5067 68.7725 26.8693 68.9538 27.2C69.1458 27.52 69.4018 27.776 69.7218 27.968C70.0525 28.16 70.4311 28.256 70.8578 28.256ZM82.2954 30.128C81.5701 30.128 80.9354 29.968 80.3914 29.648C79.8474 29.328 79.4208 28.8427 79.1114 28.192C78.8128 27.5307 78.6634 26.6987 78.6634 25.696C78.6634 24.6827 78.8074 23.8507 79.0954 23.2C79.3834 22.5493 79.7994 22.064 80.3434 21.744C80.8874 21.424 81.5381 21.264 82.2954 21.264C83.1061 21.264 83.8314 21.4507 84.4714 21.824C85.1221 22.1867 85.6341 22.6987 86.0074 23.36C86.3914 24.0213 86.5834 24.8 86.5834 25.696C86.5834 26.6027 86.3914 27.3867 86.0074 28.048C85.6341 28.7093 85.1221 29.2213 84.4714 29.584C83.8314 29.9467 83.1061 30.128 82.2954 30.128ZM77.2074 33.104V21.392H79.5914V23.152L79.5434 25.712L79.7034 28.256V33.104H77.2074ZM81.8634 28.08C82.2794 28.08 82.6474 27.984 82.9674 27.792C83.2981 27.6 83.5594 27.328 83.7514 26.976C83.9541 26.6133 84.0554 26.1867 84.0554 25.696C84.0554 25.1947 83.9541 24.768 83.7514 24.416C83.5594 24.064 83.2981 23.792 82.9674 23.6C82.6474 23.408 82.2794 23.312 81.8634 23.312C81.4474 23.312 81.0741 23.408 80.7434 23.6C80.4128 23.792 80.1514 24.064 79.9594 24.416C79.7674 24.768 79.6714 25.1947 79.6714 25.696C79.6714 26.1867 79.7674 26.6133 79.9594 26.976C80.1514 27.328 80.4128 27.6 80.7434 27.792C81.0741 27.984 81.4474 28.08 81.8634 28.08ZM93.3442 30V28.32L93.1842 27.952V24.944C93.1842 24.4107 93.0189 23.9947 92.6882 23.696C92.3682 23.3973 91.8722 23.248 91.2002 23.248C90.7415 23.248 90.2882 23.3227 89.8402 23.472C89.4029 23.6107 89.0295 23.8027 88.7202 24.048L87.8242 22.304C88.2935 21.9733 88.8589 21.7173 89.5202 21.536C90.1815 21.3547 90.8535 21.264 91.5362 21.264C92.8482 21.264 93.8669 21.5733 94.5922 22.192C95.3175 22.8107 95.6802 23.776 95.6802 25.088V30H93.3442ZM90.7202 30.128C90.0482 30.128 89.4722 30.016 88.9922 29.792C88.5122 29.5573 88.1442 29.2427 87.8882 28.848C87.6322 28.4533 87.5042 28.0107 87.5042 27.52C87.5042 27.008 87.6269 26.56 87.8722 26.176C88.1282 25.792 88.5282 25.4933 89.0722 25.28C89.6162 25.056 90.3255 24.944 91.2002 24.944H93.4882V26.4H91.4722C90.8855 26.4 90.4802 26.496 90.2562 26.688C90.0429 26.88 89.9362 27.12 89.9362 27.408C89.9362 27.728 90.0589 27.984 90.3042 28.176C90.5602 28.3573 90.9069 28.448 91.3442 28.448C91.7602 28.448 92.1335 28.352 92.4642 28.16C92.7949 27.9573 93.0349 27.664 93.1842 27.28L93.5682 28.432C93.3869 28.9867 93.0562 29.408 92.5762 29.696C92.0962 29.984 91.4775 30.128 90.7202 30.128ZM99.6884 30V22.864L100.248 23.44H96.7764V21.392H105.08V23.44H101.608L102.168 22.864V30H99.6884ZM111.067 24.144C112.198 24.1547 113.056 24.4107 113.643 24.912C114.24 25.4027 114.539 26.1013 114.539 27.008C114.539 27.9573 114.203 28.6987 113.531 29.232C112.859 29.7547 111.926 30.016 110.731 30.016L106.411 30V21.392H108.891V24.144H111.067ZM110.507 28.24C110.987 28.2507 111.355 28.1493 111.611 27.936C111.867 27.7227 111.995 27.4027 111.995 26.976C111.995 26.5493 111.867 26.2453 111.611 26.064C111.355 25.872 110.987 25.7707 110.507 25.76L108.891 25.744V28.24H110.507ZM120.63 30V21.392H129.19V30H126.694V22.88L127.254 23.44H122.55L123.11 22.88V30H120.63ZM135.679 30.128C134.751 30.128 133.924 29.9413 133.199 29.568C132.473 29.184 131.903 28.656 131.487 27.984C131.081 27.312 130.879 26.5493 130.879 25.696C130.879 24.832 131.081 24.0693 131.487 23.408C131.903 22.736 132.473 22.2133 133.199 21.84C133.924 21.456 134.751 21.264 135.679 21.264C136.585 21.264 137.375 21.456 138.047 21.84C138.719 22.2133 139.215 22.752 139.535 23.456L137.599 24.496C137.375 24.0907 137.092 23.792 136.751 23.6C136.42 23.408 136.057 23.312 135.663 23.312C135.236 23.312 134.852 23.408 134.511 23.6C134.169 23.792 133.897 24.064 133.695 24.416C133.503 24.768 133.407 25.1947 133.407 25.696C133.407 26.1973 133.503 26.624 133.695 26.976C133.897 27.328 134.169 27.6 134.511 27.792C134.852 27.984 135.236 28.08 135.663 28.08C136.057 28.08 136.42 27.9893 136.751 27.808C137.092 27.616 137.375 27.312 137.599 26.896L139.535 27.952C139.215 28.6453 138.719 29.184 138.047 29.568C137.375 29.9413 136.585 30.128 135.679 30.128ZM141.052 30V21.392H143.532V26.512L147.724 21.392H150.012V30H147.532V24.88L143.356 30H141.052ZM151.259 30L155.115 24.944L155.067 26.32L151.371 21.392H154.171L156.507 24.608L155.451 24.64L157.867 21.392H160.523L156.811 26.272V24.928L160.651 30H157.819L155.371 26.576L156.411 26.72L153.979 30H151.259ZM165.646 30.128C164.729 30.128 163.913 29.936 163.198 29.552C162.494 29.168 161.934 28.6453 161.518 27.984C161.113 27.312 160.91 26.5493 160.91 25.696C160.91 24.832 161.113 24.0693 161.518 23.408C161.934 22.736 162.494 22.2133 163.198 21.84C163.913 21.456 164.729 21.264 165.646 21.264C166.553 21.264 167.363 21.456 168.078 21.84C168.793 22.2133 169.353 22.7307 169.758 23.392C170.163 24.0533 170.366 24.8213 170.366 25.696C170.366 26.5493 170.163 27.312 169.758 27.984C169.353 28.6453 168.793 29.168 168.078 29.552C167.363 29.936 166.553 30.128 165.646 30.128ZM165.646 28.08C166.062 28.08 166.435 27.984 166.766 27.792C167.097 27.6 167.358 27.328 167.55 26.976C167.742 26.6133 167.838 26.1867 167.838 25.696C167.838 25.1947 167.742 24.768 167.55 24.416C167.358 24.064 167.097 23.792 166.766 23.6C166.435 23.408 166.062 23.312 165.646 23.312C165.23 23.312 164.857 23.408 164.526 23.6C164.195 23.792 163.929 24.064 163.726 24.416C163.534 24.768 163.438 25.1947 163.438 25.696C163.438 26.1867 163.534 26.6133 163.726 26.976C163.929 27.328 164.195 27.6 164.526 27.792C164.857 27.984 165.23 28.08 165.646 28.08ZM170.87 29.984L170.998 27.936C171.062 27.9467 171.126 27.9573 171.19 27.968C171.254 27.968 171.312 27.968 171.366 27.968C171.664 27.968 171.899 27.8827 172.07 27.712C172.24 27.5413 172.368 27.312 172.454 27.024C172.539 26.7253 172.598 26.3893 172.63 26.016C172.672 25.6427 172.704 25.2533 172.726 24.848L172.854 21.392H180.214V30H177.718V22.832L178.278 23.44H174.502L175.03 22.8L174.918 24.96C174.886 25.728 174.822 26.432 174.726 27.072C174.64 27.712 174.496 28.2667 174.294 28.736C174.091 29.1947 173.819 29.552 173.478 29.808C173.136 30.0533 172.699 30.176 172.166 30.176C171.974 30.176 171.771 30.16 171.558 30.128C171.344 30.096 171.115 30.048 170.87 29.984ZM186.646 30.128C185.729 30.128 184.913 29.936 184.198 29.552C183.494 29.168 182.934 28.6453 182.518 27.984C182.113 27.312 181.91 26.5493 181.91 25.696C181.91 24.832 182.113 24.0693 182.518 23.408C182.934 22.736 183.494 22.2133 184.198 21.84C184.913 21.456 185.729 21.264 186.646 21.264C187.553 21.264 188.363 21.456 189.078 21.84C189.793 22.2133 190.353 22.7307 190.758 23.392C191.163 24.0533 191.366 24.8213 191.366 25.696C191.366 26.5493 191.163 27.312 190.758 27.984C190.353 28.6453 189.793 29.168 189.078 29.552C188.363 29.936 187.553 30.128 186.646 30.128ZM186.646 28.08C187.062 28.08 187.435 27.984 187.766 27.792C188.097 27.6 188.358 27.328 188.55 26.976C188.742 26.6133 188.838 26.1867 188.838 25.696C188.838 25.1947 188.742 24.768 188.55 24.416C188.358 24.064 188.097 23.792 187.766 23.6C187.435 23.408 187.062 23.312 186.646 23.312C186.23 23.312 185.857 23.408 185.526 23.6C185.195 23.792 184.929 24.064 184.726 24.416C184.534 24.768 184.438 25.1947 184.438 25.696C184.438 26.1867 184.534 26.6133 184.726 26.976C184.929 27.328 185.195 27.6 185.526 27.792C185.857 27.984 186.23 28.08 186.646 28.08ZM193.083 30V21.392H199.979V23.44H195.003L195.563 22.896V30H193.083ZM206.454 30V28.32L206.294 27.952V24.944C206.294 24.4107 206.128 23.9947 205.798 23.696C205.478 23.3973 204.982 23.248 204.31 23.248C203.851 23.248 203.398 23.3227 202.95 23.472C202.512 23.6107 202.139 23.8027 201.83 24.048L200.934 22.304C201.403 21.9733 201.968 21.7173 202.63 21.536C203.291 21.3547 203.963 21.264 204.646 21.264C205.958 21.264 206.976 21.5733 207.702 22.192C208.427 22.8107 208.79 23.776 208.79 25.088V30H206.454ZM203.83 30.128C203.158 30.128 202.582 30.016 202.102 29.792C201.622 29.5573 201.254 29.2427 200.998 28.848C200.742 28.4533 200.614 28.0107 200.614 27.52C200.614 27.008 200.736 26.56 200.982 26.176C201.238 25.792 201.638 25.4933 202.182 25.28C202.726 25.056 203.435 24.944 204.31 24.944H206.598V26.4H204.582C203.995 26.4 203.59 26.496 203.366 26.688C203.152 26.88 203.046 27.12 203.046 27.408C203.046 27.728 203.168 27.984 203.414 28.176C203.67 28.3573 204.016 28.448 204.454 28.448C204.87 28.448 205.243 28.352 205.574 28.16C205.904 27.9573 206.144 27.664 206.294 27.28L206.678 28.432C206.496 28.9867 206.166 29.408 205.686 29.696C205.206 29.984 204.587 30.128 203.83 30.128Z" fill="#03B2A5"/>
</svg>
